<?xml version="1.0" standalone="no"?>
<!DOCTYPE svg PUBLIC "-//W3C//DTD SVG 20010904//EN"
 "http://www.w3.org/TR/2001/REC-SVG-20010904/DTD/svg10.dtd">
<svg version="1.0" xmlns="http://www.w3.org/2000/svg"
 width="99.000000pt" height="99.000000pt" viewBox="0 0 99.000000 99.000000"
 preserveAspectRatio="xMidYMid meet">
<metadata>
Created by potrace 1.14, written by Peter Selinger 2001-2017
</metadata>
<g transform="translate(0.000000,99.000000) scale(0.100000,-0.100000)"
fill="#000000" stroke="none">
<path d="M327 946 c-9 -13 -40 -37 -69 -54 -69 -39 -153 -131 -189 -206 -40
-84 -53 -156 -45 -251 4 -44 9 -109 11 -145 6 -101 16 -164 29 -172 6 -4 23
-8 38 -8 15 0 39 -11 54 -25 17 -16 39 -25 59 -25 18 0 59 -12 91 -27 55 -26
68 -28 194 -28 110 0 142 3 173 18 27 13 37 23 33 34 -3 8 -6 23 -6 34 0 27
-65 96 -96 102 -14 2 -41 1 -60 -3 -19 -4 -34 -6 -34 -5 0 2 5 16 11 32 6 15
11 54 13 85 3 65 9 76 31 58 13 -11 15 -7 15 33 0 27 -6 49 -15 57 -22 18 -18
57 7 74 17 12 48 16 119 16 80 0 99 -3 112 -18 18 -20 23 -57 9 -66 -5 -3 -12
-82 -15 -177 -4 -105 -11 -177 -18 -186 -9 -11 -9 -12 5 -7 9 3 16 12 16 20 0
8 6 14 14 14 20 0 81 72 111 129 72 143 73 310 3 442 -93 178 -274 279 -470
264 -49 -4 -78 -2 -83 4 -11 18 -32 12 -48 -13z m45 -3 c38 -45 88 -143 88
-173 0 -30 -22 -58 -84 -108 -19 -15 -18 -16 -69 18 -45 30 -65 82 -49 128 11
33 84 151 93 152 3 0 13 -8 21 -17z m362 -126 c25 -40 49 -88 52 -105 9 -45
-11 -86 -58 -117 -34 -23 -44 -25 -62 -15 -54 29 -86 71 -86 112 0 23 93 198
105 198 2 0 24 -33 49 -73z m-525 -173 l-22 -23 -17 22 c-16 20 -17 23 -1 43
l16 22 23 -21 22 -21 -21 -22z m691 -81 l-29 -24 -23 24 -23 23 25 26 25 25
26 -25 27 -25 -28 -24z m-428 40 c19 -17 24 -58 8 -68 -5 -3 -10 -46 -10 -95
0 -100 -11 -135 -51 -156 -26 -13 -27 -17 -18 -44 16 -43 9 -52 -43 -54 -34
-1 -54 -8 -72 -25 -30 -28 -44 -21 -100 51 -28 36 -44 48 -57 45 -13 -4 -27 5
-44 26 l-24 32 29 8 c23 6 34 2 55 -17 23 -21 88 -39 100 -27 3 2 5 57 5 121
0 92 -3 120 -15 130 -20 16 -19 54 1 74 23 24 210 23 236 -1z"/>
</g>
</svg>
